<svg width="18" height="18" viewBox="0 0 18 18" fill="none" xmlns="http://www.w3.org/2000/svg">
<path d="M15 4.5H12.75V3C12.75 2.17275 12.0773 1.5 11.25 1.5H6.75C5.92275 1.5 5.25 2.17275 5.25 3V4.5H3C2.17275 4.5 1.5 5.17275 1.5 6V14.25C1.5 15.0773 2.17275 15.75 3 15.75H15C15.8273 15.75 16.5 15.0773 16.5 14.25V6C16.5 5.17275 15.8273 4.5 15 4.5ZM11.25 3V4.5H6.75V3H11.25ZM3 6H6H12H12.75H15V9H12.75V7.5H11.25V9H6.75V7.5H5.25V9H3V6ZM3 14.25V10.5H5.25V12H6.75V10.5H11.25V12H12.75V10.5H15.0007V14.25H3Z" fill="#9397AD"/>
</svg>
