<svg width="18" height="18" viewBox="0 0 18 18" fill="none" xmlns="http://www.w3.org/2000/svg">
<path d="M15.69 1.788C15.6427 1.776 14.523 1.5 13.122 1.5C11.1833 1.5 9.62475 2.03475 8.61375 3.04575C7.49775 4.16175 6.64275 5.034 6.2325 5.45475C5.322 5.352 3.17475 5.3025 1.71975 6.75825C1.57875 6.8985 1.5 7.089 1.5 7.2885C1.5 7.488 1.57875 7.6785 1.71975 7.81875L10.2045 16.3035C10.3455 16.4445 10.5352 16.5233 10.7347 16.5233C10.9342 16.5233 11.1248 16.4445 11.265 16.3035C12.7305 14.8388 12.6855 12.693 12.5903 11.796L14.9783 9.40875C17.3715 7.0155 16.2833 2.52225 16.236 2.3325C16.1693 2.06475 15.9585 1.85475 15.69 1.788ZM13.9177 8.349L11.2657 11.0002C11.0887 11.1772 11.0115 11.4315 11.061 11.6775C11.0647 11.6962 11.3663 13.359 10.659 14.6355L3.38775 7.365C4.66275 6.6615 6.3435 6.987 6.34875 6.987C6.59625 7.0395 6.86175 6.96 7.041 6.77475C7.04325 6.7725 8.0955 5.685 9.675 4.1055C10.5885 3.192 12.0533 3 13.122 3C13.8323 3 14.4667 3.08325 14.871 3.15225C15.054 4.2255 15.3397 6.92625 13.9177 8.349Z" fill="#9397AD"/>
<path d="M11.7959 7.72803C12.6243 7.72803 13.2959 7.05645 13.2959 6.22803C13.2959 5.3996 12.6243 4.72803 11.7959 4.72803C10.9675 4.72803 10.2959 5.3996 10.2959 6.22803C10.2959 7.05645 10.9675 7.72803 11.7959 7.72803Z" fill="#9397AD"/>
<path d="M3.75 12C2.25 12.75 2.25 15.75 2.25 15.75C2.25 15.75 4.5 15.75 6 14.25L3.75 12Z" fill="#9397AD"/>
</svg>
