<svg width="18" height="18" viewBox="0 0 18 18" fill="none" xmlns="http://www.w3.org/2000/svg">
<g opacity="0.6">
<path d="M4.88681 10.7422L3.76931 15.5812C3.70031 15.8805 3.82031 16.1918 4.07381 16.3665C4.20206 16.455 4.35056 16.5 4.49981 16.5C4.64456 16.5 4.79006 16.458 4.91606 16.374L8.99981 13.6515L13.0836 16.374C13.3446 16.548 13.6873 16.5413 13.9423 16.356C14.1958 16.1708 14.3076 15.846 14.2213 15.5445L12.8496 10.7445L16.2516 7.683C16.4743 7.482 16.5561 7.1685 16.4601 6.885C16.3633 6.6015 16.1076 6.402 15.8091 6.378L11.5333 6.0375L9.68306 1.94175C9.56231 1.6725 9.29456 1.5 8.99981 1.5C8.70506 1.5 8.43731 1.6725 8.31656 1.94175L6.46631 6.0375L2.19056 6.37725C1.89656 6.4005 1.64381 6.59325 1.54481 6.87C1.44431 7.14675 1.51631 7.4565 1.72631 7.662L4.88681 10.7422ZM7.02656 7.49775C7.29881 7.476 7.53881 7.308 7.65056 7.05825L8.99981 4.0725L10.3491 7.05825C10.4608 7.308 10.7008 7.476 10.9731 7.49775L13.9521 7.734L11.4988 9.942C11.2858 10.134 11.2011 10.4295 11.2791 10.7055L12.2188 13.9943L9.41681 12.126C9.16481 11.9572 8.83706 11.9572 8.58506 12.126L5.65706 14.0782L6.44456 10.6688C6.50306 10.4138 6.42506 10.146 6.23756 9.96375L3.95906 7.74225L7.02656 7.49775Z" fill="white"/>
</g>
</svg>
