<svg width="24" height="24" viewBox="0 0 24 24" fill="none" xmlns="http://www.w3.org/2000/svg">
<path d="M24 2.43534C20.7719 1.91285 18.3743 2.53034 16.807 4.28781C15.2398 6.04528 14.4561 8.63398 14.4561 12.0539V21.7437H24V12.0539H19.0877C18.8304 10.3439 19.0643 8.9546 19.7895 7.88587C20.538 6.81714 21.7544 6.35402 23.4386 6.49652L24 2.43534ZM9.54386 2.43534C6.31579 1.91285 3.91813 2.53034 2.35088 4.28781C0.783626 6.04528 0 8.63398 0 12.0539V21.7437H9.54386V12.0539H4.63158C4.37427 10.3439 4.60819 8.9546 5.33333 7.88587C6.08187 6.81714 7.29824 6.35402 8.98245 6.49652L9.54386 2.43534Z" fill="white"/>
</svg>
