<svg width="61" height="61" viewBox="0 0 61 61" fill="none" xmlns="http://www.w3.org/2000/svg">
<path d="M0 30.5C0 13.6553 13.6553 0 30.5 0C47.3447 0 61 13.6553 61 30.5C61 47.3447 47.3447 61 30.5 61C13.6553 61 0 47.3447 0 30.5Z" fill="#4A5FEF"/>
<path fill-rule="evenodd" clip-rule="evenodd" d="M49.8168 20.3547L42.1656 26.4078L31.0085 19.6015L38.7514 13.2167L49.8168 20.3547ZM23.2656 13.2168L31.0082 19.6015L19.8516 26.4078L19.8514 26.4076L19.8513 26.4077L12.2002 20.3547L23.2656 13.2168ZM19.8513 26.4077L12.2002 32.4615L23.2656 39.5995L31.0085 33.2143L19.8516 26.4078L19.8515 26.4079L19.8513 26.4077ZM42.1658 26.4082L31.0084 33.2145L38.7513 39.5997L49.8167 32.4617L42.1658 26.4082ZM38.7968 40.9543L31.0313 34.588L23.2657 40.9543L19.9426 38.8109V41.2138L31.0313 47.7833L42.1199 41.2138V38.8109L38.7968 40.9543Z" fill="white"/>
</svg>
