<svg width="61" height="61" viewBox="0 0 61 61" fill="none" xmlns="http://www.w3.org/2000/svg">
<path fill-rule="evenodd" clip-rule="evenodd" d="M54.5309 10.614C54.0779 8.17961 52.6363 6.98001 51.333 6.50833C49.9268 5.99806 47.0754 5.4695 43.4929 5.04556C40.6106 4.70478 37.223 4.73191 35.1767 4.79542C34.9311 3.10658 33.7512 1.56379 32.431 1.02966C28.9136 -0.391793 23.4788 -0.0483904 22.0835 0.34422C20.9747 0.655343 19.7474 1.29305 19.0644 2.27552C18.6063 2.93183 18.3099 3.77267 18.3076 4.94735C18.3076 5.61218 18.3261 7.17831 18.3429 8.56969C18.3569 9.73137 18.3718 10.7909 18.3765 11.1186L18.3765 11.1196L18.3779 11.2224C18.3773 12.4651 17.3741 13.4765 16.1308 13.4781H10.4277C9.21133 13.4781 8.28175 13.6833 7.5718 14.0071C6.86069 14.3313 6.35705 14.7684 5.97437 15.2854C5.21258 16.3119 5.08041 17.5789 5.08355 18.8718C5.08355 18.8718 5.09476 19.9283 5.3483 21.9731C5.55902 23.5553 7.26809 34.6084 8.89148 37.9699C9.5208 39.2778 9.94013 39.8226 11.1767 40.399C13.9318 41.5832 20.2248 42.9007 23.1743 43.278C23.6621 43.3406 24.1199 43.4147 24.5491 43.4842C26.7103 43.8342 28.1487 44.0671 29.0675 42.133C29.0711 42.1274 29.2881 41.5563 29.5864 40.7187C30.5425 37.8101 30.6756 35.2293 30.6756 33.3619C30.6756 33.172 30.9531 33.1633 30.9531 33.3619C30.9531 33.4352 30.9523 33.519 30.9515 33.6119C30.9368 35.1891 30.8976 39.4158 34.2129 40.5979C35.5988 41.0914 38.4737 41.5313 41.3949 41.875C44.0362 42.1798 45.9531 43.2234 45.9531 50.0269C45.9531 54.1661 45.0872 54.7336 40.5602 54.7336L40.2235 54.7338C36.8045 54.7366 35.4918 54.7377 35.4918 51.902C35.4918 49.7379 37.4422 49.7611 39.0968 49.7807L39.0977 49.7807C39.2515 49.7825 39.4026 49.7843 39.5494 49.7843C40.035 49.7843 39.9931 49.5561 39.8954 49.0231C39.8379 48.7092 39.761 48.2896 39.761 47.7487C39.761 47.1333 39.9235 46.6279 40.0456 46.2483C40.2115 45.7323 40.3027 45.4486 39.8099 45.4363C33.8375 45.2713 30.3234 45.4294 30.3234 52.9285C30.3234 59.7363 32.9183 61.0004 41.3949 61.0004C48.0409 61.0004 50.3837 60.7819 53.1279 52.2334C53.6711 50.5458 54.9843 45.3957 55.7791 36.7486C56.2814 31.2811 55.3052 14.779 54.5309 10.614ZM42.9454 28.8552C42.1243 28.8264 41.3346 28.8785 40.5981 28.9973C40.8054 27.3168 41.4963 25.2547 43.9438 25.341C46.6531 25.4346 47.0328 28.0055 47.0425 29.7469C45.9 29.2356 44.4858 28.9096 42.9454 28.8552ZM10.1638 11.817H10.16C8.75962 11.817 7.58969 12.0567 6.62483 12.4938C6.58094 12.513 6.27313 12.6659 6.04449 12.7795L6.03803 12.7827C6.04432 12.7589 6.05783 12.7357 6.07951 12.7178L17.159 1.6872C17.1806 1.66543 17.2025 1.65471 17.2243 1.65103L17.0293 2.01872C16.6212 2.83738 16.387 3.81449 16.387 4.93512V4.9512C16.387 6.26411 16.4511 10.8565 16.4559 11.2036L16.4562 11.2243C16.4555 11.5499 16.1927 11.817 15.866 11.817H10.1638Z" fill="#20C05C"/>
</svg>
