<svg width="61" height="61" viewBox="0 0 61 61" fill="none" xmlns="http://www.w3.org/2000/svg">
<path d="M57.1108 53.9605H3.81513C1.74857 53.9605 0.00830078 52.2746 0.00830078 50.1537V11.6503C0.00830078 9.58371 1.69418 7.84344 3.81513 7.84344H57.1108C59.1773 7.84344 60.9176 9.52933 60.9176 11.6503V50.1537C60.9176 52.2746 59.2317 53.9605 57.1108 53.9605Z" fill="#E3E3E3"/>
<path opacity="0.1" d="M7.62117 53.9613L30.4078 35.6341L30.5709 34.6552L7.07733 17.742L7.02295 53.1455L7.62117 53.9613Z" fill="#231F20"/>
<path d="M3.81513 53.9607C1.69418 53.9607 0.00830078 52.2748 0.00830078 50.1538V11.5961C0.00830078 9.4751 1.69418 9.09442 3.81513 9.09442C5.93608 9.09442 7.62196 9.52949 7.62196 11.5961V53.9607H3.81513Z" fill="#D54B3D"/>
<path d="M3.81513 9.63825C6.5343 9.63825 7.07813 10.454 7.07813 11.5961V53.4168H3.81513C2.02048 53.4168 0.552134 51.9485 0.552134 50.1538V11.5961C0.552134 10.3996 1.09597 9.63825 3.81513 9.63825ZM3.81513 9.09442C1.69418 9.09442 0.00830078 9.52949 0.00830078 11.5961V50.1538C0.00830078 52.2748 1.69418 53.9607 3.81513 53.9607H7.62196V11.5961C7.62196 9.4751 5.93608 9.09442 3.81513 9.09442Z" fill="#D72B27"/>
<path d="M57.1105 53.9607H53.3037V11.4873C53.3037 9.36634 54.9896 9.09442 57.1105 9.09442C59.2315 9.09442 60.9174 9.36634 60.9174 11.4873V50.2082C60.9174 52.2748 59.2315 53.9607 57.1105 53.9607Z" fill="#D54B3D"/>
<path d="M57.1105 9.63825C59.5578 9.63825 60.3736 10.1277 60.3736 11.4873V50.2082C60.3736 52.0029 58.9052 53.4712 57.1105 53.4712H53.8475V11.4873C53.8475 10.0733 54.6633 9.63825 57.1105 9.63825ZM57.1105 9.09442C54.9896 9.09442 53.3037 9.36634 53.3037 11.4873V54.015H57.1105C59.2315 54.015 60.9174 52.3292 60.9174 50.2082V11.4873C60.9174 9.36634 59.2315 9.09442 57.1105 9.09442Z" fill="#D72B27"/>
<path d="M40.795 53.9571L0.326172 13.1739L2.4548 14.0398L30.6254 34.3247L60.9169 12.1126L60.9169 50.2047C60.9169 52.2712 59.231 53.9571 57.11 53.9571H40.795Z" fill="url(#paint0_linear_4424_20444)"/>
<path d="M30.4079 35.6308L1.63912 14.7476C-0.0467605 13.4968 -0.53621 11.1039 0.714606 9.41802C1.96542 7.73214 4.41267 7.35145 6.15294 8.60227L30.4623 26.2768L54.9348 8.38473C56.6207 7.13392 59.0135 7.5146 60.2643 9.25487C61.5152 10.9408 61.1345 13.3336 59.3942 14.5844L30.4079 35.6308Z" fill="#D54B3D"/>
<path d="M57.1105 8.16883C58.1437 8.16883 59.1226 8.65828 59.7752 9.52842C60.8085 10.9968 60.4822 13.0089 59.0682 14.0966L30.4082 34.9798L1.96577 14.3141C0.497416 13.2265 0.116733 11.1599 1.15002 9.74595C1.74823 8.9302 2.78152 8.38637 3.86918 8.38637C4.57617 8.38637 5.28315 8.6039 5.82698 9.03897L30.0819 26.6592L30.4082 26.8767L30.7345 26.6592L55.1526 8.76705C55.7509 8.38637 56.4035 8.16883 57.1105 8.16883ZM57.1105 7.625C56.3491 7.625 55.5333 7.84253 54.8807 8.33198L30.4082 26.2241L6.0989 8.54952C5.4463 8.06007 4.63055 7.84253 3.8148 7.84253C2.61837 7.84253 1.42193 8.38637 0.660566 9.41965C-0.535866 11.1055 -0.0464166 13.4984 1.63947 14.7492L30.4082 35.6868L59.3402 14.5861C61.0261 13.3352 61.4067 10.9968 60.2103 9.2565C59.4489 8.16883 58.3069 7.625 57.1105 7.625Z" fill="#D72B27"/>
<defs>
<linearGradient id="paint0_linear_4424_20444" x1="0.328529" y1="33.0339" x2="60.9364" y2="33.0339" gradientUnits="userSpaceOnUse">
<stop stop-opacity="0.1"/>
<stop offset="1" stop-opacity="0.2"/>
</linearGradient>
</defs>
</svg>
