<svg width="61" height="61" viewBox="0 0 61 61" fill="none" xmlns="http://www.w3.org/2000/svg">
<path d="M30.5001 11.7938C36.2273 11.7938 40.0906 14.2677 42.2934 16.3349L50.9012 7.93043C45.6145 3.01654 38.7351 0.000427246 30.5001 0.000427246C18.5712 0.000427246 8.26897 6.84598 3.25342 16.8093L13.1151 24.4682C15.589 17.1143 22.4345 11.7938 30.5001 11.7938Z" fill="#EA4335"/>
<path d="M59.7795 31.1811C59.7795 28.6733 59.5762 26.8433 59.1356 24.9455H30.4995V36.2644H47.3084C46.9695 39.0772 45.1395 43.3133 41.0728 46.1599L50.6973 53.6155C56.4584 48.2949 59.7795 40.4666 59.7795 31.1811Z" fill="#4285F4"/>
<path d="M13.1489 36.5352C12.505 34.6374 12.1322 32.6041 12.1322 30.5029C12.1322 28.4018 12.505 26.3685 13.115 24.4707L3.25333 16.8118C1.18611 20.9463 0 25.5891 0 30.5029C0 35.4168 1.18611 40.0596 3.25333 44.1941L13.1489 36.5352Z" fill="#FBBC05"/>
<path d="M30.4999 61.0007C38.7349 61.0007 45.6482 58.2896 50.6977 53.6129L41.0732 46.1573C38.4977 47.9535 35.041 49.2073 30.4999 49.2073C22.4343 49.2073 15.5888 43.8868 13.1488 36.5329L3.28711 44.1918C8.30267 54.1551 18.571 61.0007 30.4999 61.0007Z" fill="#34A853"/>
</svg>
