
<svg xmlns="http://www.w3.org/2000/svg" width="114" height="40" viewBox="0 0 114 40"><g><g><g><g><path fill="#2e2e2e" d="M11.16.14v11.12H.14z"></path></g><g><path fill="#2e2e2e" d="M29.656.14v39.716H.14V10.07L9.979.14zm-2.558 2.582h-16.08l-8.32 8.4v26.134h24.4z"></path></g><g><g><path fill="#2e2e2e" d="M42.586 10.152H38.96V5.358h3.626c1.827 0 2.924.823 2.924 2.354v.029c0 1.447-1.153 2.383-2.924 2.383zM36.43 3.06v14.298h2.502v-4.993h3.12l3.486 4.993h2.951l-3.823-5.419c1.968-.595 3.374-1.985 3.374-4.34v-.028c0-1.249-.422-2.327-1.181-3.093-.9-.879-2.305-1.418-4.076-1.418z"></path></g><g><path fill="#2e2e2e" d="M51.727 11.201c.225-1.674 1.294-2.837 2.783-2.837 1.603 0 2.53 1.248 2.699 2.837zm3.093 6.355c1.94 0 3.345-.795 4.357-2.015l-1.434-1.276c-.843.823-1.715 1.276-2.895 1.276-1.574 0-2.811-.964-3.064-2.723h7.842c0-.227.029-.454.029-.68 0-3.093-1.715-5.788-5.117-5.788-3.064 0-5.228 2.525-5.228 5.617v.028c0 3.32 2.39 5.589 5.51 5.56z"></path></g><g><path fill="#2e2e2e" d="M61.08 15.942l1.096-1.674c1.153.88 2.418 1.333 3.514 1.333 1.04 0 1.659-.453 1.659-1.163v-.028c0-.851-1.125-1.135-2.39-1.504-1.574-.453-3.345-1.106-3.345-3.177v-.028c0-2.043 1.687-3.291 3.795-3.291 1.321 0 2.783.482 3.935 1.22l-.983 1.759c-1.04-.624-2.137-1.022-3.008-1.022-.956 0-1.49.454-1.49 1.078v.029c0 .766 1.152 1.106 2.417 1.503 1.546.483 3.317 1.192 3.317 3.15v.028c0 2.27-1.742 3.376-3.963 3.376-1.518.028-3.205-.54-4.554-1.59z"></path></g><g><path fill="#2e2e2e" d="M71.82 13.415V6.55h2.446v6.128c0 1.673.815 2.638 2.277 2.638 1.405 0 2.417-.993 2.417-2.667V6.55h2.446v10.78H78.96v-1.674c-.675 1.022-1.687 1.901-3.345 1.901-2.418 0-3.795-1.617-3.795-4.142z"></path></g><g><path fill="#2e2e2e" d="M84.39 6.549h2.446v1.645c.674-.965 1.63-1.844 3.26-1.844 1.546 0 2.615.766 3.177 1.9.871-1.134 1.996-1.9 3.626-1.9 2.333 0 3.739 1.504 3.739 4.113v6.894h-2.446v-6.156c0-1.702-.787-2.638-2.164-2.638-1.35 0-2.277.936-2.277 2.666V17.3h-2.446v-6.099c0-1.674-.815-2.61-2.164-2.61-1.35 0-2.277 1.021-2.277 2.695v6.071h-2.446V6.55z"></path></g><g><path fill="#2e2e2e" d="M105.416 11.201c.224-1.674 1.293-2.837 2.782-2.837 1.603 0 2.53 1.248 2.7 2.837zm3.035 6.355c1.94 0 3.346-.795 4.358-2.015l-1.434-1.276c-.843.823-1.715 1.276-2.895 1.276-1.575 0-2.811-.964-3.064-2.723h7.87c0-.227.029-.454.029-.68 0-3.093-1.715-5.788-5.117-5.788-3.064 0-5.228 2.525-5.228 5.617v.028c0 3.32 2.39 5.589 5.481 5.56z"></path></g><g><path fill="#2e2e2e" d="M36.46 22.61h2.305l7.59 9.872V22.61H48.8v14.298h-2.08l-7.814-10.156v10.156H36.46V22.61z"></path></g><g><path fill="#2e2e2e" d="M56.586 35.016c-1.911 0-3.26-1.59-3.26-3.466v-.028c0-1.875 1.236-3.438 3.204-3.438 1.94 0 3.289 1.563 3.289 3.466v.029c0 1.875-1.265 3.437-3.233 3.437zm-.056 2.118c3.317 0 5.735-2.553 5.735-5.617v-.028c0-3.093-2.39-5.589-5.679-5.589s-5.706 2.553-5.706 5.645v.029c0 3.064 2.39 5.588 5.65 5.56z"></path></g><g><path fill="#2e2e2e" d="M63.25 26.128h2.502l2.136 7.405 2.39-7.433h2.08l2.39 7.433 2.192-7.405h2.445L75.9 36.994h-2.193l-2.39-7.376-2.417 7.376h-2.192z"></path></g></g></g><g><path fill="#2e2e2e" d="M80.78 33.68h3.189v3.158H80.78z"></path></g></g></g></svg>