<svg width="236.6" height="54.225" viewBox="0 0 410.154 94" class="looka-1j8o68f" style="padding: 8px 0;">
    <rect xmlns="http://www.w3.org/2000/svg" width="94" height="94" rx="10" ry="10" fill="#1e88ed"/>
    <g transform="matrix(.67308 0 0 .67308 13.27 13.27)" fill="#fff" stroke="#fff" stroke-width="2" stroke-linecap="round" stroke-linejoin="round" stroke-miterlimit="10">
        <circle xmlns="http://www.w3.org/2000/svg" cx="18" cy="18" r="8"/>
        <circle xmlns="http://www.w3.org/2000/svg" cx="34" cy="18" r="3"/>
        <circle xmlns="http://www.w3.org/2000/svg" cx="50" cy="18" r="5.5"/>
        <circle xmlns="http://www.w3.org/2000/svg" cx="66.001" cy="18" r="3"/>
        <path xmlns="http://www.w3.org/2000/svg" d="M90 18a8 8 0 1 1-15.999 0A8 8 0 1 1 90 18zM39.5 34.002a5.5 5.5 0 1 1-11.001-.005 5.5 5.5 0 0 1 11.001.005z"/>
        <circle xmlns="http://www.w3.org/2000/svg" cx="50" cy="34" r="2.999"/>
        <path xmlns="http://www.w3.org/2000/svg" d="M71.499 34.002a5.497 5.497 0 0 1-5.498 5.498 5.502 5.502 0 0 1-5.503-5.498 5.502 5.502 0 0 1 5.503-5.502 5.498 5.498 0 0 1 5.498 5.502z"/>
        <circle xmlns="http://www.w3.org/2000/svg" cx="34" cy="50.001" r="3"/>
        <circle xmlns="http://www.w3.org/2000/svg" cx="50" cy="50.001" r="8.001"/>
        <circle xmlns="http://www.w3.org/2000/svg" cx="66.001" cy="50.001" r="3"/>
        <path xmlns="http://www.w3.org/2000/svg" d="M39.5 66.002a5.5 5.5 0 1 1-11.001-.005 5.5 5.5 0 0 1 11.001.005z"/>
        <circle xmlns="http://www.w3.org/2000/svg" cx="49.999" cy="66" r="3"/>
        <path xmlns="http://www.w3.org/2000/svg" d="M71.499 66.002a5.497 5.497 0 0 1-5.498 5.498 5.502 5.502 0 0 1-5.503-5.498 5.502 5.502 0 0 1 5.503-5.502 5.497 5.497 0 0 1 5.498 5.502zM26 82a8 8 0 0 1-16 0 7.994 7.994 0 0 1 7.999-7.998A7.996 7.996 0 0 1 26 82z"/>
        <circle xmlns="http://www.w3.org/2000/svg" cx="34" cy="82" r="3"/>
        <circle xmlns="http://www.w3.org/2000/svg" cx="50" cy="82" r="5.5"/>
        <circle xmlns="http://www.w3.org/2000/svg" cx="66" cy="82" r="2.999"/>
        <circle xmlns="http://www.w3.org/2000/svg" cx="17.999" cy="66" r="3"/>
        <path xmlns="http://www.w3.org/2000/svg" d="M17.999 44.501a5.5 5.5 0 1 1 0 10.998 5.5 5.5 0 0 1 0-10.998z"/>
        <circle xmlns="http://www.w3.org/2000/svg" cx="17.999" cy="34.001" r="3"/>
        <circle xmlns="http://www.w3.org/2000/svg" cx="82" cy="66" r="3"/>
        <path xmlns="http://www.w3.org/2000/svg" d="M82 44.503a5.5 5.5 0 0 1 5.503 5.498 5.5 5.5 0 0 1-11.001 0A5.498 5.498 0 0 1 82 44.503z"/>
        <circle xmlns="http://www.w3.org/2000/svg" cx="82" cy="34.001" r="2.999"/>
        <path xmlns="http://www.w3.org/2000/svg" d="M90 82a8 8 0 1 1-15.999 0c0-4.422 3.582-8 7.999-8 4.421 0 8 3.578 8 8z"/>
    </g>
    <path d="M128.614 26c1.476 0 2.712.13 3.709.387l-.554 4.429c-.812-.332-1.753-.498-2.823-.498-1.513 0-2.602.415-3.266 1.245s-.996 2.298-.996 4.401v6.31h5.923v4.318h-5.979v21.921h-4.982v-21.92H114v-4.318h5.646v-6.09c0-3.505.71-6.08 2.131-7.722s3.7-2.463 6.837-2.463zm20.482 15.61c.922 0 1.66.111 2.214.332l-.222 5.37c-.96-.258-1.79-.387-2.49-.387-4.909 0-7.4 2.73-7.474 8.192v13.396h-4.982V42.275h4.982v4.04h.111c.664-1.402 1.735-2.537 3.21-3.404s3.027-1.3 4.65-1.3zm18.544 0c4.022 0 7.15 1.264 9.383 3.792s3.367 6.006 3.404 10.435v1.384h-21.035c0 2.14.858 3.94 2.574 5.397s3.81 2.205 6.283 2.242c2.73 0 5.13-1.31 7.196-3.93l3.764 2.878c-2.804 3.58-6.68 5.37-11.625 5.37-4.022 0-7.26-1.283-9.714-3.848s-3.718-5.877-3.792-9.936c0-3.912 1.264-7.169 3.792-9.77s5.784-3.94 9.77-4.014zm7.473 11.625c-.074-2.472-.775-4.364-2.104-5.674s-3.155-1.965-5.48-1.965c-1.55 0-2.943.378-4.18 1.135s-2.204 1.734-2.905 2.934-1.052 2.39-1.052 3.57h15.72zm23.305-11.625c4.022 0 7.15 1.264 9.383 3.792s3.367 6.006 3.404 10.435v1.384H190.17c0 2.14.858 3.94 2.574 5.397s3.81 2.205 6.283 2.242c2.73 0 5.13-1.31 7.196-3.93l3.764 2.878c-2.805 3.58-6.68 5.37-11.625 5.37-4.022 0-7.26-1.283-9.715-3.848s-3.718-5.877-3.792-9.936c0-3.912 1.264-7.169 3.792-9.77s5.785-3.94 9.77-4.014zm7.473 11.625c-.074-2.472-.775-4.364-2.104-5.674s-3.155-1.965-5.48-1.965c-1.55 0-2.943.378-4.18 1.135s-2.204 1.734-2.906 2.934-1.051 2.39-1.051 3.57h15.72zm39.635-11.625c.922 0 1.66.111 2.214.332l-.222 5.37c-.96-.258-1.79-.387-2.49-.387-4.909 0-7.4 2.73-7.474 8.192v13.396h-4.982V42.275h4.982v4.04h.111c.664-1.402 1.734-2.537 3.21-3.404s3.027-1.3 4.65-1.3zm18.544 0c4.022 0 7.15 1.264 9.383 3.792s3.367 6.006 3.404 10.435v1.384h-21.035c0 2.14.858 3.94 2.574 5.397s3.81 2.205 6.283 2.242c2.73 0 5.13-1.31 7.196-3.93l3.764 2.878c-2.804 3.58-6.68 5.37-11.625 5.37-4.022 0-7.26-1.283-9.715-3.848s-3.718-5.877-3.791-9.936c0-3.912 1.263-7.169 3.791-9.77s5.785-3.94 9.77-4.014zm7.473 11.625c-.074-2.472-.775-4.364-2.104-5.674s-3.155-1.965-5.48-1.965c-1.55 0-2.943.378-4.18 1.135s-2.204 1.734-2.906 2.934-1.051 2.39-1.051 3.57h15.72zm20.15-11.625c1.992 0 3.773.37 5.341 1.108s2.777 1.808 3.626 3.21l-3.875 2.934c-1.476-1.734-3.266-2.602-5.37-2.602-1.254 0-2.297.277-3.127.83s-1.246 1.255-1.246 2.104c0 1.845 1.716 3.1 5.149 3.764 3.358.628 5.729 1.55 7.113 2.768s2.076 2.953 2.076 5.204c0 2.546-.97 4.548-2.907 6.006s-4.53 2.205-7.777 2.242c-2.436 0-4.438-.379-6.006-1.135s-2.925-1.928-4.069-3.515l3.764-3.1c1.993 2.066 4.115 3.1 6.366 3.1 1.476 0 2.731-.295 3.764-.886s1.55-1.402 1.55-2.436c0-1.808-1.66-3.063-4.982-3.764-3.69-.738-6.172-1.725-7.445-2.961s-1.91-2.833-1.91-4.789c0-2.435.941-4.382 2.823-5.84s4.263-2.205 7.141-2.242zm20.702.665v15.72c0 2.067.545 3.673 1.633 4.817s2.538 1.716 4.346 1.716c2.325 0 4.124-.766 5.397-2.298s1.91-3.607 1.91-6.227V42.275h4.982v26.238h-4.982v-4.04h-.11c-.702 1.475-1.846 2.629-3.433 3.46s-3.321 1.245-5.203 1.245c-2.916 0-5.232-.905-6.948-2.713s-2.574-4.17-2.574-7.085V42.275h4.982zm38.97-.665c3.802 0 6.533 1.624 8.194 4.872.848-1.55 2.01-2.75 3.487-3.598s3.081-1.274 4.816-1.274c6.606 0 9.927 3.801 9.964 11.404v15.5h-4.982V53.622c0-2.584-.461-4.457-1.384-5.619s-2.343-1.744-4.262-1.744c-2.251 0-3.93.683-5.038 2.048s-1.66 3.248-1.66 5.647v14.558h-4.982V54.398c0-3.1-.443-5.232-1.329-6.394s-2.288-1.744-4.207-1.744c-2.067 0-3.718.794-4.954 2.38s-1.855 3.599-1.855 6.034v13.84h-4.982v-26.24h4.65v4.097h.11c.554-1.292 1.652-2.408 3.295-3.35s3.349-1.41 5.12-1.41zm46.002 0c4.022 0 7.15 1.264 9.382 3.792s3.368 6.006 3.405 10.435v1.384h-21.035c0 2.14.858 3.94 2.574 5.397s3.81 2.205 6.283 2.242c2.73 0 5.13-1.31 7.196-3.93l3.764 2.878c-2.805 3.58-6.68 5.37-11.625 5.37-4.022 0-7.26-1.283-9.715-3.848s-3.718-5.877-3.792-9.936c0-3.912 1.264-7.169 3.792-9.77s5.785-3.94 9.77-4.014zm7.473 11.625c-.074-2.472-.775-4.364-2.104-5.674s-3.155-1.965-5.48-1.965c-1.55 0-2.943.378-4.18 1.135s-2.204 1.734-2.906 2.934-1.051 2.39-1.051 3.57h15.72z" fill="#393e46"/>
</svg>
