<svg width="61" height="61" viewBox="0 0 61 61" fill="none" xmlns="http://www.w3.org/2000/svg">
<path fill-rule="evenodd" clip-rule="evenodd" d="M57.9836 43.5903L57.9781 43.6103C57.7933 44.2863 53.223 61.0055 36.0593 61.0004C20.9846 60.9958 13.8394 47.7392 13.8394 47.7392C12.7408 47.8012 11.6807 47.6247 10.7029 47.2613C6.28013 45.6174 4.15809 40.4983 5.68409 36.2035L3.25332 34.3242C-6.16272 27.0672 20.5112 -6.14089 29.9436 1.37343C29.9913 1.4114 32.1952 3.20613 32.1952 3.20613C35.5819 1.12538 38.936 0.000549895 41.6624 0.000427325C43.5986 0.000182423 45.218 0.567314 46.3085 1.76197C48.7567 4.44378 47.8769 9.56499 44.5338 14.7499C45.2528 15.4405 45.8488 16.3791 46.2741 17.3109C47.3369 18.1406 48.0258 19.4019 48.368 21.1438C48.5797 22.2196 48.6982 23.5491 48.8027 24.7217L48.8027 24.7218C48.8863 25.6603 48.961 26.4983 49.0674 27.0253C49.2929 27.1283 49.438 27.1936 49.5438 27.2412C49.6433 27.286 49.708 27.3152 49.7723 27.3453C49.8922 27.4016 50.0105 27.4614 50.3494 27.6328C50.408 27.6624 50.4731 27.6954 50.546 27.7322C51.5482 28.2389 52.7687 28.8561 54.1174 30.169C56.5148 30.7767 57.4302 33.3554 56.0274 35.1153C55.9898 35.1625 55.8204 35.3656 55.645 35.5676C55.6514 35.5847 55.6676 35.6168 55.6916 35.6645L55.6917 35.6645C55.8247 35.9284 56.1975 36.6679 56.4786 37.9674C57.472 38.2048 58.2633 38.8236 58.6786 39.721C59.3968 41.4772 57.9836 43.5903 57.9836 43.5903ZM51.0705 56.6259V57.3483H51.344V56.6259H51.6237V56.3979H50.7945V56.6259H51.0705ZM51.7072 57.3483V56.3979H52.0969L52.2679 56.9448L52.4363 56.3979H52.8263V57.3483H52.5769V56.6603L52.3731 57.3483H52.1604L51.9566 56.6621V57.3483H51.7072Z" fill="#5B453E"/>
<path fill-rule="evenodd" clip-rule="evenodd" d="M56.4513 42.5701C56.2349 43.3802 55.1741 47.3509 50.9283 50.6994C45.031 55.3511 37.2825 54.8804 34.3561 52.2736C32.7928 50.8058 32.1161 48.7066 32.1161 48.7066C32.1161 48.7066 31.9391 49.8896 31.9089 50.3542C30.7295 48.341 30.8293 45.8821 30.8293 45.8821C30.8293 45.8821 30.2001 47.0595 29.9122 47.7191C29.0443 45.5018 29.4927 43.2121 29.4927 43.2121L28.8061 44.2395C28.8061 44.2395 28.484 41.7299 29.2746 39.6395C30.1194 37.4058 31.7576 35.7832 32.0813 35.5809C30.8385 35.1843 29.4066 34.0476 29.4042 34.0455C29.4042 34.0455 29.9735 34.0834 30.3694 33.9921C30.3694 33.9921 27.8565 32.1851 27.4159 29.4204C27.7799 29.8719 28.5438 30.3821 28.5438 30.3821C28.2965 29.6585 28.1469 28.0488 28.378 26.4646L28.3788 26.4629C28.8541 23.4365 31.339 21.4658 34.1535 21.4905C34.6914 21.4953 35.1973 21.5195 35.6801 21.5427C37.8872 21.6485 39.6089 21.731 41.67 19.8232C41.699 19.7964 41.7277 19.7697 41.7561 19.7433C42.2488 19.2856 42.6667 18.8974 43.3721 18.7405C43.3861 18.7374 43.4036 18.7323 43.4254 18.7259C43.5264 18.6965 43.7169 18.641 44.0465 18.641C44.4517 18.641 44.842 18.7325 45.1991 18.9459C46.5616 19.7598 46.8553 21.8829 47.0018 23.4396C47.3327 26.9687 47.3796 27.9568 47.8974 28.4634C48.2269 28.7857 48.747 28.9132 49.6522 29.3761C49.7594 29.4307 49.8678 29.4851 49.9776 29.5402C51.0053 30.0557 52.148 30.6289 53.4309 32.0078C53.4381 32.0155 53.4482 32.0201 53.4588 32.0203C54.6564 32.0491 55.2737 32.9956 54.7211 33.6847C50.7024 38.502 45.0897 40.8088 38.8345 41.0018C38.6346 41.0069 38.2422 41.0161 38.0728 41.0201C38.0231 41.0212 37.9926 41.0219 37.9919 41.022C35.4655 41.0988 34.6429 44.3795 36.228 46.3525C37.2299 47.5995 39.157 48.0093 40.7431 48.0154L40.7656 48.0074C47.6047 48.1465 54.4757 43.2887 55.6624 40.6099C55.671 40.5906 55.7435 40.42 55.7435 40.42C55.7435 40.42 55.6804 40.4943 55.6041 40.5571C55.6004 40.5596 55.5823 40.5762 55.5504 40.6054C54.9022 41.1998 48.5419 47.0318 40.7115 46.8115C40.7115 46.8115 39.8265 46.7931 38.9931 46.5983C37.8942 46.3417 37.0593 45.8571 36.7397 44.7576C36.6448 44.5562 36.5903 43.8595 36.7164 43.3905C37.0601 42.2358 37.6357 42.2258 38.5263 42.2101C38.6596 42.2078 38.7999 42.2054 38.9476 42.1989H38.9477C42.9989 42.0635 46.2679 41.0411 48.7179 39.8735C51.3304 38.6285 53.3215 37.0243 54.0389 36.2146C54.9693 37.7872 54.9637 39.8064 54.9637 39.8064C54.9637 39.8064 55.3287 39.6784 55.8118 39.6784C57.3302 39.6785 57.6427 41.0418 56.4933 42.4255C56.4862 42.4395 56.473 42.4889 56.4513 42.5701ZM18.7043 35.1578C18.7043 35.1578 18.5153 35.9433 18.1401 36.9004C17.78 33.8372 16.4992 33.189 16.4992 33.1891C15.7572 32.844 14.9369 32.6524 14.0743 32.6524C10.7465 32.6524 8.04883 35.5031 8.04883 39.0198C8.04883 42.5364 10.7465 45.3871 14.0743 45.3871C17.8225 45.3871 20.6676 41.8049 20.0054 37.8915C20.0054 37.8915 19.6232 38.7869 19.2672 39.2624C19.3534 37.8615 19.1337 36.4756 18.7043 35.1578Z" fill="#F2D8B4"/>
<path d="M6.14353 33.8885C6.11951 33.8823 3.85459 32.2702 3.5324 31.7394C1.62674 28.6205 4.94214 22.2142 7.30146 18.5727C13.1319 9.5732 22.8367 2.47085 27.2444 3.48512L31.7709 5.75122C30.0134 6.7539 28.3135 7.98547 27.2953 8.80456L26.3321 9.58795C26.3321 9.58795 23.5193 11.4246 22.1204 12.5824C16.5126 17.2234 10.9911 24.4079 8.94346 31.3429C8.94346 31.3427 7.26102 32.1528 6.14353 33.8885Z" fill="#207EAC"/>
<path d="M28.3822 3.49333C23.8891 2.39293 13.9972 10.0983 8.054 19.8621C8.05227 19.8649 8.05055 19.8678 8.04883 19.8706L8.07282 19.8733L12.8084 23.7218C18.008 15.2018 24.543 10.8086 24.7273 10.6795L23.9765 5.46472L25.3831 4.76953L28.206 5.71318L27.99 4.73968L28.3822 3.49333Z" fill="#4FB1D3"/>
<path d="M35.1598 4.76127L30.0176 8.20604L29.6578 8.47419L25.0979 4.92586L24.9932 4.25482L26.5786 3.53187C26.66 3.55697 29.635 4.4745 29.7605 4.5132L29.8136 2.63177L29.9592 2.20471L31.352 1.69641C31.354 1.69773 35.1546 4.75691 35.1598 4.76127Z" fill="#FACD55"/>
<path d="M40.8148 1.69641C37.9099 1.69641 34.6485 3.30737 32.1467 4.89122C31.7957 5.10895 31.4475 5.3368 31.1064 5.56903L29.7974 4.41203L30.2728 6.15427C30.0931 6.28444 29.9176 6.41423 29.7458 6.54327L27.041 5.67246L28.8307 7.25206C28.4221 7.5786 28.0571 7.88428 27.7543 8.14898L23.4623 4.4124L23.6895 6.08707L26.8089 8.98494C26.8089 8.98494 24.0484 10.9444 22.6755 12.1799C17.1718 17.1314 11.7528 24.7971 9.74316 32.1964L9.85738 32.1287C9.8729 32.1196 9.88854 32.1121 9.90406 32.1031C9.95998 32.0714 10.0157 32.0411 10.0716 32.0114C10.1075 31.9924 10.1431 31.9732 10.179 31.9551C10.2365 31.926 10.2941 31.8989 10.3517 31.8721C10.3855 31.8563 10.4197 31.8396 10.4537 31.8248C10.516 31.7972 10.5782 31.7722 10.6405 31.7473C10.6693 31.7358 10.6981 31.7232 10.7269 31.7125C10.8176 31.6781 10.908 31.6465 10.9982 31.6182C12.3645 31.1884 14.2232 30.9121 16.3992 31.8864C17.4919 28.9804 18.7974 26.0238 20.8548 23.1829C22.5229 20.8794 24.1264 18.8229 26.051 17.6919C29.6951 14.0825 39.517 10.2551 42.6636 13.5727C43.4076 12.2894 44.0533 11.0746 44.5853 9.5517C45.8983 5.88945 45.9222 1.69641 40.8148 1.69641Z" fill="#131B23"/>
<path d="M30.0768 5.08293L29.0098 3.38849L28.3823 4.23266L28.7579 4.89624L30.0768 5.08293Z" fill="#131B23"/>
<path fill-rule="evenodd" clip-rule="evenodd" d="M39.9444 1.69641C38.3494 1.86368 36.6864 2.44399 35.1348 3.17849C29.8971 5.70085 26.2414 9.42168 25.8029 9.86796C25.7841 9.88713 25.7712 9.90025 25.7644 9.90699C25.3293 10.3355 24.8957 10.7794 24.4655 11.2362C23.1856 12.5949 21.9353 14.0664 20.7636 15.5795C18.6918 18.2548 17.8297 19.5033 16.521 22.0463C16.5208 22.0466 16.5297 22.0356 16.5472 22.0141C17.0195 21.4335 23.7397 13.1718 25.4592 11.4204C28.7314 8.08752 34.0872 4.37577 34.143 4.3427C36.43 2.9057 38.3603 2.06235 39.9444 1.69641ZM52.897 35.2427C53.7985 36.8012 53.7931 38.8025 53.7931 38.8025C53.8086 39.3769 53.7902 39.6937 53.7589 40.1379C51.9306 41.7229 46.4796 45.9324 39.9848 45.7452C39.9848 45.7452 39.1272 45.7272 38.3198 45.5341C37.2608 45.2811 36.4549 44.8045 36.1415 43.7272L36.1366 43.7097L36.136 43.7084C36.1311 43.6973 36.0908 43.6003 36.0648 43.3912L36.0638 43.383L36.063 43.3752C36.0571 43.3231 36.0522 43.2676 36.0487 43.2098L36.0477 43.1896L36.0473 43.1829C36.0427 43.0905 36.0416 42.9846 36.0454 42.8643C36.047 42.8222 36.0495 42.7801 36.0529 42.7381L36.0534 42.7382L36.0538 42.7249C36.0648 42.595 36.0842 42.4681 36.1141 42.3547C36.447 41.2103 37.0048 41.2003 37.8676 41.1849C37.9967 41.1825 38.1327 41.1801 38.2758 41.1737H38.2759C42.2009 41.0395 45.3682 40.0261 47.7418 38.869C50.2729 37.6351 52.202 36.0452 52.897 35.2427Z" fill="#FFFFFE"/>
<path fill-rule="evenodd" clip-rule="evenodd" d="M46.1869 25.1802C46.4718 28.2156 46.5394 28.9364 47.1411 29.3641C47.1576 29.3803 47.1745 29.3941 47.1915 29.4054C46.7876 29.5232 46.4261 29.634 46.1055 29.7354C45.5149 28.9346 44.6947 28.1859 43.0087 28.3076C40.7742 28.4994 38.9985 30.497 39.3201 32.4807C38.2583 33.0163 37.2694 33.5717 36.3496 34.1372C34.8321 34.2998 32.9835 34.8239 31.353 36.1889C30.124 35.8019 28.7081 34.6924 28.7056 34.6904C28.7056 34.6904 29.2687 34.7273 29.66 34.6383C29.66 34.6383 29.6329 34.619 29.584 34.5815C29.5819 34.5788 29.5794 34.5761 29.5764 34.5739C29.5431 34.5477 29.509 34.5217 29.4745 34.4955C28.89 34.0256 27.1028 32.4256 26.7396 30.1761C27.0995 30.6169 27.8549 31.1146 27.8549 31.1146C27.8458 31.0888 27.8371 31.0616 27.8283 31.0333C27.8296 31.0292 27.8303 31.0248 27.8303 31.0203C27.8303 31.0203 27.7254 30.7214 27.6519 30.1451C27.6317 29.9832 27.6151 29.8107 27.6026 29.6301C27.5947 29.5083 27.5885 29.3791 27.585 29.2421C27.6774 28.105 27.9674 27.1496 28.6898 26.2457C29.7432 24.928 31.1885 24.3925 32.8561 24.4182C33.3152 24.424 33.7791 24.4714 34.2625 24.5208L34.2625 24.5208C34.7268 24.5682 35.2091 24.6175 35.7226 24.6336C37.1549 24.6783 38.5345 24.4422 39.9862 23.7913C41.4205 23.114 42.2315 22.3323 43.0803 21.1186C43.3794 20.7913 43.9069 20.3122 44.3735 20.3326C44.683 20.3326 44.8977 20.4845 45.0505 20.6168C45.7892 21.605 45.9937 23.1432 46.1077 24.3392C46.1353 24.6296 46.1609 24.9024 46.1849 25.1587L46.1869 25.1796L46.1869 25.1802ZM41.8261 31.0343C42.1708 29.9335 43.7344 29.4041 44.6784 30.0693C44.2566 30.3124 44.1266 31.0172 44.384 31.4261C43.8504 31.4162 43.302 31.6251 42.9162 31.995C42.9521 31.4711 42.3724 31.0616 41.8261 31.0343ZM47.527 52.5265C48.3709 52.0867 49.1976 51.5621 49.9905 50.9448C54.1885 47.6771 55.2377 43.8022 55.452 43.0108C55.4735 42.9314 55.4866 42.883 55.4937 42.8694C53.5502 45.3589 51.0079 47.3374 48.2876 48.707C46.0509 49.8339 44.3775 50.2259 44.3775 50.2259C44.3775 50.2259 45.5752 51.7916 47.527 52.5265ZM34.7735 43.503C35.0709 42.4064 35.9107 41.5377 37.198 41.499C37.2011 41.4989 37.7756 41.4858 38.0312 41.4794C44.2168 41.291 49.767 39.0395 53.741 34.3379C54.2874 33.6653 53.677 32.7415 52.4927 32.7134C52.488 32.7133 52.4758 32.7134 52.4758 32.7134C52.3734 32.8207 52.3139 32.9733 52.236 33.1734L52.236 33.1734C52.1616 33.3647 52.0702 33.5993 51.9083 33.8791C50.6995 35.9596 49.0277 36.9111 46.7983 38.0149C43.1743 39.8024 40.4753 40.2012 38.5273 40.489C36.8011 40.744 35.6646 40.912 34.9963 41.8817C34.5829 42.4891 34.5751 43.1677 34.7735 43.503ZM47.9475 42.7247C47.9305 42.7251 47.9129 42.7288 47.8847 42.7351C47.7966 42.7553 47.601 42.8185 47.3178 42.9101C45.4369 43.5184 39.6907 45.3766 35.8744 44.1891C35.8547 44.4271 35.8611 44.9272 35.9595 45.1446L35.9599 45.1458C36.6242 45.2778 37.4648 45.3621 38.4405 45.3621C44.2185 45.3621 48.3824 42.7594 47.9475 42.7247ZM15.6273 42.1881L15.6223 42.1915C12.9071 42.3898 10.3966 38.9522 11.8788 37.0566C12.0818 36.9052 12.2555 36.8181 12.3242 36.7837C12.3362 36.7777 12.345 36.7733 12.3502 36.7704C12.3898 36.7496 12.4304 36.7326 12.4726 36.715C12.5018 36.7028 12.5318 36.6903 12.5627 36.676C12.5924 36.6637 12.6265 36.6534 12.6641 36.6429C12.7845 36.6092 12.8104 36.5997 12.8368 36.5922C12.8632 36.5847 12.8901 36.5792 13.0118 36.5537H13.0116C14.3302 36.2769 15.2605 36.855 15.6655 37.4235C15.852 37.6851 15.8921 37.8817 15.9212 38.0244C15.9306 38.0708 15.9389 38.1114 15.9507 38.1468L15.9509 38.1485C15.6352 37.7121 15.2275 37.6165 15.2275 37.6165C14.8837 37.4809 14.2232 37.6881 14.1801 38.425C14.1601 38.7084 14.2454 39.026 14.4902 39.3052L14.4919 39.3073C14.5007 39.3171 14.5096 39.3271 14.5188 39.3369C14.5272 39.3461 14.5358 39.3551 14.5444 39.3639C14.745 39.5699 14.9835 39.7197 15.2112 39.8629C15.6019 40.1085 15.961 40.3342 16.043 40.7893C16.1266 41.29 15.9791 41.8134 15.6273 42.1881Z" fill="#E2B986"/>
<path fill-rule="evenodd" clip-rule="evenodd" d="M42.489 13.2359C40.304 11.5275 33.9262 12.0113 27.5412 16.2196C24.6178 18.1463 22.474 20.2538 20.8216 22.4434C20.8216 22.4434 23.3724 17.5127 28.9772 14.2513C28.5864 14.1875 27.6677 14.2992 27.4041 14.3313C27.3861 14.3335 27.3711 14.3353 27.3596 14.3367C28.3778 13.4461 30.2694 12.8516 31.5765 12.5813C31.1939 12.3338 30.2828 12.2713 29.8306 12.2591C29.7072 12.2558 29.699 12.2561 29.5744 12.2615C29.5639 12.2619 29.5526 12.2624 29.5403 12.2629C30.7697 11.5639 33.0492 11.1537 35.1214 11.5243C34.861 11.1727 34.2704 10.9162 33.8564 10.7915C33.8203 10.7805 33.6577 10.7395 33.6577 10.7395C33.6577 10.7395 33.7962 10.7062 33.8138 10.7027C35.0621 10.4583 36.5203 10.7222 37.6739 11.1932C37.5428 10.884 37.2227 10.524 36.9821 10.2961C36.9575 10.2728 36.8137 10.1678 36.8137 10.1678C38.0206 10.4221 39.1771 10.9574 40.0474 11.5652C39.9291 11.3328 39.6364 10.9416 39.4341 10.728C40.5873 11.0635 41.8819 11.8997 42.4367 13.0984C42.4495 13.1239 42.4814 13.2129 42.4884 13.2324L42.4894 13.2352L42.489 13.2359ZM37.3711 29.2351C37.4957 29.4203 37.529 29.5601 37.4787 29.6183C37.3884 29.7256 37.089 29.6059 36.644 29.4279C36.5946 29.4082 36.5435 29.3877 36.4907 29.3668C35.136 28.853 34.138 28.7747 32.3713 29.4547L32.2302 29.5097C31.8576 29.6552 31.5913 29.7593 31.4558 29.7388C31.208 29.7014 31.4479 29.2402 31.9894 28.7927C33.0789 27.9089 34.5753 27.6346 35.854 28.1185C36.4137 28.328 37.0422 28.7461 37.3711 29.2351ZM37.1024 30.6447C36.731 30.3562 36.0471 30.1628 35.3371 30.2855C35.2261 30.3027 35.1215 30.3331 35.0194 30.3627L35.0192 30.3628C34.9842 30.373 34.9495 30.383 34.915 30.3925C34.8653 30.4049 34.8179 30.4228 34.7716 30.4425C34.478 30.5683 34.2239 30.7038 33.9773 30.9442C33.6943 31.2222 33.6139 31.4804 33.6957 31.5439C33.7658 31.6008 33.9234 31.5348 34.163 31.4346L34.163 31.4345L34.2161 31.4124L34.2746 31.3881C35.2885 30.9595 36.006 30.9481 36.6896 30.9966L36.7382 30.9999C37.0409 31.0208 37.2424 31.0347 37.2911 30.948C37.3272 30.886 37.2616 30.7682 37.1024 30.6447ZM15.2691 35.9322L15.2688 35.932C14.7148 35.4776 13.9294 35.2625 13.0169 35.4592H13.0172L13.0007 35.4627L13.0006 35.4627L13.0005 35.4628C12.8936 35.4858 12.8681 35.4913 12.8431 35.4986C12.8353 35.5009 12.8275 35.5034 12.8173 35.5066L12.8173 35.5066C12.7931 35.5143 12.7553 35.5262 12.6711 35.5504C12.6335 35.561 12.5995 35.5717 12.5701 35.5841C12.5395 35.5987 12.5099 35.6114 12.481 35.6238L12.4809 35.6238L12.4809 35.6238L12.4808 35.6238L12.4808 35.6238C12.4387 35.6419 12.3981 35.6593 12.3586 35.6807C12.3535 35.6836 12.3448 35.6881 12.333 35.6941C12.2161 35.7541 11.791 35.9723 11.439 36.4103C11.2509 36.6475 11.1064 36.9114 11.0009 37.1828C10.8103 37.6842 10.7391 38.2337 10.7595 38.7617C10.7874 39.4825 10.976 39.9151 11.0466 40.0769L11.0466 40.077C11.055 40.0963 11.0618 40.1117 11.0663 40.1233C11.2466 40.517 10.8245 40.5979 10.4394 40.1748L10.4385 40.1739C10.1304 39.8423 9.93315 39.3373 9.83663 38.8888V38.8886C9.77965 38.622 9.74316 38.3229 9.74316 38.001C9.74316 37.6277 9.79237 37.2236 9.91585 36.805L9.91596 36.8044L9.91608 36.8041C10.25 35.7045 11.0005 34.8742 12.141 34.422C12.2135 34.3931 12.294 34.3717 12.3695 34.3516L12.3695 34.3516C12.4037 34.3425 12.4368 34.3337 12.4677 34.3246L12.4666 34.3248C12.6587 34.2665 13.3466 34.1249 14.046 34.2355C14.4506 34.2993 14.8187 34.4355 15.136 34.6152C15.4526 34.7945 15.7189 35.0171 15.9211 35.256L15.9219 35.2571C16.2524 35.6392 16.5019 36.1784 16.4575 36.6583L16.4574 36.6595C16.4408 36.859 16.3539 37.145 16.1771 37.2192C16.1113 37.2465 16.0454 37.232 15.9992 37.1859C15.9475 37.1344 15.9329 37.0609 15.9133 36.962C15.8843 36.8162 15.8444 36.6152 15.6586 36.3478C15.5635 36.2106 15.4359 36.067 15.2694 35.9324L15.2691 35.9322ZM15.0742 37.7249C14.9482 37.6234 14.8897 37.5367 14.8548 37.4034C14.8034 37.1604 14.8302 37.0193 15.0345 36.8733C15.0787 36.8425 15.1206 36.8162 15.1579 36.7927C15.253 36.7328 15.3184 36.6917 15.3187 36.6422C15.3258 36.512 14.7997 36.3779 14.4319 36.7461C14.1266 37.0769 14.0302 37.7666 14.5174 38.3042C14.7225 38.5292 14.9706 38.6892 15.207 38.8417C15.5959 39.0924 15.953 39.3227 16.0346 39.7881C16.0519 39.8941 16.0648 40.0121 16.0557 40.1287C16.0574 40.2483 16.0224 40.4149 16.0134 40.4576L16.0115 40.4672C15.8483 41.19 15.1737 41.8797 14.0613 41.704L14.013 41.6968L14.013 41.6968L14.013 41.6968C13.8355 41.67 13.7204 41.6527 13.6841 41.7056C13.5983 41.8269 14.075 42.3816 14.9477 42.3615C15.8016 42.3431 16.6486 41.693 16.9202 40.7159L16.9221 40.7089C16.9347 40.6624 17.0039 40.4079 17.01 40.178C17.0253 39.9942 17.0122 39.805 16.9786 39.6072C16.8124 38.6701 16.0865 38.2892 15.5397 38.0022C15.3544 37.905 15.1897 37.8185 15.0742 37.7249ZM44.0907 29.5236C44.163 29.053 44.495 28.715 44.8324 28.7685C45.1698 28.8221 45.3848 29.2469 45.3127 29.7175C45.2404 30.188 44.9084 30.526 44.571 30.4725C44.2335 30.4189 44.0185 29.9941 44.0907 29.5236ZM41.1249 30.1415C40.9394 30.4856 41.1653 30.9743 41.6294 31.2328C42.0934 31.4915 42.62 31.4222 42.8056 31.078C42.991 30.7338 42.7652 30.2451 42.3009 29.9866C41.8368 29.728 41.3103 29.7973 41.1249 30.1415Z" fill="#916D53"/>
<path d="M41.938 26.8204C41.9312 26.3544 41.9857 25.5844 42.3099 25.4412C42.3103 25.441 42.3101 25.441 42.3106 25.4409C42.8646 25.1809 43.5982 27.1011 43.6319 28.806C43.1941 28.5093 42.6797 28.3834 42.1505 28.4455C42.0175 27.8966 41.9538 27.3796 41.938 26.8204Z" fill="#5B453E"/>
</svg>
