<svg width="64" height="64" viewBox="0 0 64 64" fill="none" xmlns="http://www.w3.org/2000/svg">
<rect width="64" height="64" rx="32" fill="#F3F6FF"/>
<g clip-path="url(#clip0_4424_20712)">
<path d="M23.5 28.6875H21.0301C21.4473 23 26.2079 18.5 32 18.5C36.5834 18.5 40.7307 21.3869 42.3203 25.6837C42.5598 26.3311 43.2788 26.6618 43.9264 26.4224C44.5738 26.1828 44.9046 25.4638 44.6651 24.8163C43.7177 22.2553 42.0346 20.0638 39.7979 18.4787C37.5098 16.8571 34.8133 16 32 16C28.3941 16 25.0039 17.4042 22.4541 19.9541C19.9375 22.4706 18.5378 25.8059 18.5017 29.3592C17.0078 30.2248 16 31.8402 16 33.6875V37.9375C16 40.6945 18.243 42.9375 21 42.9375H23.5C24.1904 42.9375 24.75 42.3779 24.75 41.6875V29.9375C24.75 29.2471 24.1904 28.6875 23.5 28.6875ZM22.25 40.4375H21C19.6215 40.4375 18.5 39.316 18.5 37.9375V33.6875C18.5 32.309 19.6215 31.1875 21 31.1875H22.25V40.4375Z" fill="#6366F1"/>
<path d="M43 28.6875H40.5C39.8096 28.6875 39.25 29.2471 39.25 29.9375V38.5V41.6875V43C39.25 43.6892 38.6892 44.25 38 44.25H34.1875V44.2896C33.7611 43.5207 32.9415 43 32 43C30.6193 43 29.5 44.1193 29.5 45.5C29.5 46.8807 30.6193 48 32 48C32.9415 48 33.7611 47.4793 34.1875 46.7104V46.75H38C40.0677 46.75 41.75 45.0677 41.75 43V42.9375H43C45.757 42.9375 48 40.6945 48 37.9375V33.6875C48 30.9305 45.757 28.6875 43 28.6875ZM45.5 37.9375C45.5 39.316 44.3785 40.4375 43 40.4375H41.75V38.5V31.1875H43C44.3785 31.1875 45.5 32.309 45.5 33.6875V37.9375Z" fill="#6366F1"/>
</g>
<defs>
<clipPath id="clip0_4424_20712">
<rect width="32" height="32" fill="white" transform="translate(16 16)"/>
</clipPath>
</defs>
</svg>
