<svg width="64" height="64" viewBox="0 0 64 64" fill="none" xmlns="http://www.w3.org/2000/svg">
<rect width="64" height="64" rx="32" fill="#F3F6FF"/>
<g clip-path="url(#clip0_4424_20731)">
<path d="M45.2835 35.1609C45.0248 34.521 44.2962 34.2117 43.6562 34.4705C43.0161 34.7293 42.707 35.4578 42.9657 36.0979L44.4379 39.7395L40.0655 37.8121C39.749 37.6726 39.3889 37.6704 39.0707 37.8061C37.5765 38.4437 35.9757 38.767 34.313 38.767C27.6209 38.767 23.1255 33.5273 23.1255 28.6335C23.1255 23.0459 28.1442 18.5 34.313 18.5C40.4818 18.5 45.5005 23.0459 45.5005 28.6335C45.5005 29.0694 45.4598 29.5914 45.3892 30.0655C45.2873 30.7483 45.7582 31.3844 46.441 31.4863C47.1239 31.5884 47.76 31.1172 47.8618 30.4344C47.9512 29.835 48.0005 29.1954 48.0005 28.6335C48.0005 25.2379 46.5626 22.0517 43.9515 19.6621C41.3714 17.3006 37.9484 16 34.313 16C30.6776 16 27.2546 17.3006 24.6745 19.662C22.3412 21.7975 20.9457 24.5692 20.675 27.5579C17.7402 29.5014 16.0005 32.6157 16.0005 35.9703C16.0005 38.0658 16.6607 40.054 17.9174 41.7651L16.0917 46.2814C15.901 46.7531 16.0152 47.2933 16.3805 47.6474C16.6185 47.8783 16.9322 48 17.2508 48C17.421 47.9999 17.5926 47.9653 17.7547 47.8938L23.019 45.5731C24.3433 46.0661 25.7431 46.3156 27.1879 46.3156C27.2192 46.3156 27.2499 46.3132 27.2806 46.3109C29.3704 46.2951 31.4021 45.7454 33.1617 44.7168C34.7378 43.7953 36.0343 42.5294 36.9432 41.0345C37.8307 40.8751 38.698 40.6343 39.5399 40.3125L46.2462 43.2688C46.4084 43.3402 46.58 43.375 46.7502 43.375C47.0687 43.3749 47.3825 43.2532 47.6205 43.0224C47.9858 42.6683 48.1 42.1281 47.9093 41.6565L45.2835 35.1609ZM27.1881 43.8124C27.171 43.8124 27.1544 43.8143 27.1374 43.815C25.8611 43.8085 24.6326 43.5576 23.4853 43.0681C23.1672 42.9323 22.807 42.9345 22.4905 43.0741L19.5632 44.3644L20.5075 42.0285C20.6821 41.5967 20.602 41.1036 20.2999 40.7491C19.1227 39.3681 18.5005 37.7156 18.5005 35.9703C18.5005 33.9727 19.3408 32.08 20.8111 30.6449C21.2688 33.1402 22.5604 35.5272 24.5087 37.4023C26.9331 39.7356 30.14 41.0874 33.6028 41.2501C31.9771 42.8504 29.6506 43.8124 27.1881 43.8124Z" fill="#6366F1"/>
<path d="M34.25 29.9375C34.9404 29.9375 35.5 29.3779 35.5 28.6875C35.5 27.9971 34.9404 27.4375 34.25 27.4375C33.5596 27.4375 33 27.9971 33 28.6875C33 29.3779 33.5596 29.9375 34.25 29.9375Z" fill="#6366F1"/>
<path d="M39.25 29.9375C39.9404 29.9375 40.5 29.3779 40.5 28.6875C40.5 27.9971 39.9404 27.4375 39.25 27.4375C38.5596 27.4375 38 27.9971 38 28.6875C38 29.3779 38.5596 29.9375 39.25 29.9375Z" fill="#6366F1"/>
<path d="M29.25 29.9375C29.9404 29.9375 30.5 29.3779 30.5 28.6875C30.5 27.9971 29.9404 27.4375 29.25 27.4375C28.5596 27.4375 28 27.9971 28 28.6875C28 29.3779 28.5596 29.9375 29.25 29.9375Z" fill="#6366F1"/>
</g>
<defs>
<clipPath id="clip0_4424_20731">
<rect width="32" height="32" fill="white" transform="translate(16 16)"/>
</clipPath>
</defs>
</svg>
