<svg width="64" height="64" viewBox="0 0 64 64" fill="none" xmlns="http://www.w3.org/2000/svg">
<rect width="64" height="64" rx="32" fill="#F3F6FF"/>
<path d="M38.4414 39.3125H34.7539C34.0635 39.3125 33.5039 39.8721 33.5039 40.5625C33.5039 41.2529 34.0635 41.8125 34.7539 41.8125H38.4414C39.1318 41.8125 39.6914 41.2529 39.6914 40.5625C39.6914 39.8721 39.1318 39.3125 38.4414 39.3125Z" fill="#6366F1"/>
<path d="M38.4414 31.75H34.7539C34.0635 31.75 33.5039 32.3096 33.5039 33C33.5039 33.6904 34.0635 34.25 34.7539 34.25H38.4414C39.1318 34.25 39.6914 33.6904 39.6914 33C39.6914 32.3096 39.1318 31.75 38.4414 31.75Z" fill="#6366F1"/>
<path d="M43.4345 38C44.1248 38 44.6845 37.4404 44.6845 36.75V21C44.6845 18.243 42.4415 16 39.6845 16H24.3164C21.5594 16 19.3164 18.243 19.3164 21V43C19.3164 45.757 21.5594 48 24.3164 48H39.6844C42.4415 48 44.6844 45.757 44.6845 43C44.6845 42.3096 44.1248 41.75 43.4345 41.75C42.7441 41.75 42.1845 42.3096 42.1845 43C42.1845 44.3785 41.063 45.5 39.6845 45.5H24.3164C22.9379 45.5 21.8164 44.3785 21.8164 43V21C21.8164 19.6215 22.9379 18.5 24.3164 18.5H39.6845C41.063 18.5 42.1845 19.6215 42.1845 21V36.75C42.1845 37.4404 42.7441 38 43.4345 38Z" fill="#6366F1"/>
<path d="M31.9875 20.9741C31.4554 20.5345 30.6675 20.6094 30.2278 21.1416L27.5275 24.4099L26.462 23.3157C25.9804 22.8212 25.189 22.8106 24.6943 23.2922C24.1998 23.7739 24.1892 24.5652 24.6708 25.0598L26.0117 26.4369C26.0228 26.4483 26.034 26.4594 26.0455 26.4704C26.4507 26.856 26.9915 27.0705 27.5478 27.0705C27.5956 27.0704 27.6437 27.0689 27.6917 27.0656C28.2945 27.0254 28.8574 26.7337 29.2378 26.2647L32.155 22.7339C32.5948 22.2017 32.5198 21.4138 31.9875 20.9741Z" fill="#6366F1"/>
<path d="M31.988 36.2158C31.4559 35.7762 30.6679 35.8511 30.2283 36.3833L27.5272 39.6525L26.46 38.5626C25.9769 38.0693 25.1856 38.0611 24.6923 38.5441C24.1991 39.0271 24.1908 39.8185 24.6738 40.3118L26.0146 41.6811C26.0249 41.6915 26.0353 41.7018 26.0459 41.712C26.4511 42.0976 26.992 42.3122 27.5483 42.3122C27.5961 42.3121 27.6441 42.3105 27.6921 42.3073C28.2949 42.2671 28.8578 41.9754 29.2383 41.5065L32.1555 37.9756C32.5953 37.4433 32.5203 36.6555 31.988 36.2158Z" fill="#6366F1"/>
<path d="M38.4414 24.0625H34.7539C34.0635 24.0625 33.5039 24.6221 33.5039 25.3125C33.5039 26.0029 34.0635 26.5625 34.7539 26.5625H38.4414C39.1318 26.5625 39.6914 26.0029 39.6914 25.3125C39.6914 24.6221 39.1318 24.0625 38.4414 24.0625Z" fill="#6366F1"/>
<path d="M31.988 28.6538C31.4559 28.2141 30.6679 28.2891 30.2283 28.8213L27.5272 32.0905L26.46 31.0006C25.9769 30.5074 25.1856 30.4991 24.6923 30.9821C24.1991 31.4651 24.1908 32.2565 24.6738 32.7498L26.0146 34.1191C26.0249 34.1295 26.0353 34.1398 26.0459 34.15C26.4511 34.5357 26.992 34.7502 27.5483 34.7502C27.5961 34.7501 27.6441 34.7485 27.6921 34.7453C28.2949 34.7052 28.8578 34.4134 29.2383 33.9445L32.1555 30.4136C32.5953 29.8814 32.5203 29.0935 31.988 28.6538Z" fill="#6366F1"/>
</svg>
