<svg width="64" height="64" viewBox="0 0 64 64" fill="none" xmlns="http://www.w3.org/2000/svg">
<rect width="64" height="64" rx="32" fill="#F3F6FF"/>
<path d="M19.962 26.596C20.3926 24.1954 21.4892 22.0191 23.1335 20.3024C23.611 19.8038 23.594 19.0126 23.0954 18.5351C22.5968 18.0574 21.8055 18.0746 21.3281 18.5732C19.3423 20.6464 18.019 23.268 17.5013 26.1546C17.3794 26.8341 17.8314 27.4838 18.5109 27.6057C18.5857 27.619 18.6598 27.6255 18.7331 27.6255C19.3268 27.6255 19.8535 27.2008 19.962 26.596Z" fill="#6366F1"/>
<path d="M44.4703 36.9872C44.401 36.9601 43.426 36.5671 42.7094 35.6658C42.2798 35.1254 41.4935 35.0357 40.953 35.4653C40.4126 35.8949 40.3228 36.6812 40.7525 37.2217C41.3987 38.0344 42.1501 38.5749 42.7239 38.907C42.628 39.4454 42.4254 40.047 42.071 40.5577C41.5145 41.36 40.7283 41.75 39.6678 41.75H24.4191C22.4859 41.75 21.6233 40.1302 21.3738 38.9004C21.7428 38.6868 22.1856 38.3884 22.6295 37.989C24.0451 36.7154 24.7935 35.0334 24.7935 33.125V28.75C24.7935 24.8055 27.9909 21.5534 31.9211 21.5007C31.932 21.5006 31.9426 21.4991 31.9534 21.4986C31.9626 21.4988 31.9716 21.5 31.981 21.5C32.0139 21.5 32.0463 21.4976 32.0786 21.4951C32.1075 21.4974 32.1363 21.5003 32.1658 21.5006C36.1305 21.5539 39.356 24.8059 39.356 28.75V30.5C39.356 31.1904 39.9156 31.75 40.606 31.75C41.2963 31.75 41.856 31.1904 41.856 30.5V28.75C41.856 23.7929 38.0723 19.6493 33.231 19.0698V17.25C33.231 16.5596 32.6713 16 31.981 16C31.2906 16 30.731 16.5596 30.731 17.25V19.0853C28.6025 19.3679 26.6349 20.3473 25.0993 21.9084C23.29 23.7477 22.2935 26.1775 22.2935 28.75V33.125C22.2935 35.9164 19.7785 36.9252 19.6165 36.9872C19.1141 37.1619 18.7935 37.6299 18.7935 38.1621C18.7935 39.4741 19.2608 40.9084 20.0436 41.9992C21.0855 43.4506 22.6395 44.25 24.4191 44.25H28.2935C28.2935 46.3177 29.9757 48 32.0435 48C34.1112 48 35.7935 46.3177 35.7935 44.25H39.6678C42.0516 44.25 43.4075 43.0171 44.125 41.9829C45.1796 40.463 45.2934 38.8046 45.2934 38.1621C45.2935 37.6297 44.9728 37.1618 44.4703 36.9872ZM32.0435 45.5C31.3542 45.5 30.7935 44.9393 30.7935 44.25H33.2935C33.2935 44.9393 32.7328 45.5 32.0435 45.5Z" fill="#6366F1"/>
<path d="M46.4988 26.1922C45.9762 23.2788 44.6024 20.5493 42.6303 18.5063C42.1508 18.0097 41.3595 17.9957 40.8628 18.4752C40.3661 18.9547 40.3522 19.746 40.8316 20.2427C42.4633 21.933 43.602 24.2026 44.0381 26.6335C44.1465 27.2384 44.6733 27.663 45.267 27.663C45.3402 27.663 45.4145 27.6566 45.4892 27.6432C46.1687 27.5213 46.6207 26.8717 46.4988 26.1922Z" fill="#6366F1"/>
</svg>
