<svg width="64" height="64" viewBox="0 0 64 64" fill="none" xmlns="http://www.w3.org/2000/svg">
<rect width="64" height="64" rx="32" fill="#F3F6FF"/>
<g clip-path="url(#clip0_4424_20723)">
<path d="M31.9376 48C31.7459 48 31.5545 47.9561 31.3785 47.8682C31.2322 47.7949 27.7562 46.0325 24.1192 42.0791C21.9874 39.7622 20.2364 37.1641 18.9146 34.3572C17.2637 30.8513 16.284 27.0129 16.002 22.9487C15.9791 22.6172 16.0892 22.2903 16.3077 22.04C16.5264 21.7898 16.8355 21.6367 17.1673 21.615C19.4566 21.4646 21.2501 19.5474 21.2501 17.25C21.2501 16.5596 21.8096 16 22.5001 16H41.5001C42.1902 16 42.75 16.5596 42.75 17.25C42.75 19.5459 44.5423 21.4631 46.8304 21.615C47.1673 21.6372 47.4808 21.7949 47.6995 22.052C47.9185 22.3091 48.024 22.6438 47.9922 22.98C47.5647 27.4927 46.3187 31.7134 44.2884 35.5251C43.9637 36.1345 43.2066 36.3652 42.5975 36.0408C41.9881 35.7163 41.7574 34.9592 42.0818 34.3499C43.7825 31.157 44.8877 27.6462 45.3738 23.8989C42.8143 23.2241 40.848 21.1074 40.3646 18.5H23.6356C23.1502 21.1187 21.1695 23.2419 18.594 23.9072C19.251 30.2134 21.7022 35.7271 25.8892 40.3105C28.3956 43.054 30.8528 44.6726 31.9305 45.3132C33.1097 44.5959 35.9615 42.6685 38.7378 39.3264C39.179 38.7952 39.9668 38.7224 40.4981 39.1636C41.0291 39.6047 41.1021 40.3928 40.6609 40.9238C36.7098 45.6802 32.6768 47.7759 32.5069 47.8628C32.3282 47.9543 32.1329 48 31.9376 48ZM32.9043 41.2354C33.3206 40.6843 33.2115 39.9006 32.6609 39.4844C31.5801 38.6677 30.5574 37.7417 29.6209 36.7324C26.898 33.7969 25.0506 30.3479 24.1226 26.4705C24.6226 26.0842 25.0931 25.6575 25.5274 25.1956C26.2476 24.4292 26.8626 23.5735 27.3553 22.6516C27.6805 22.0427 27.4505 21.2854 26.8416 20.96C26.2327 20.6348 25.4754 20.8647 25.1502 21.4736C24.7613 22.2012 24.2754 22.8772 23.7061 23.4832C23.2042 24.0171 22.6417 24.491 22.0347 24.8921C21.6089 25.1733 21.3968 25.6853 21.4991 26.1855C22.4507 30.8391 24.5665 34.9597 27.7881 38.4326C28.8238 39.5491 29.9561 40.5742 31.1536 41.479C31.3792 41.6494 31.6439 41.7317 31.9063 41.7317C32.2847 41.7317 32.6587 41.5605 32.9043 41.2354Z" fill="#6366F1"/>
</g>
<defs>
<clipPath id="clip0_4424_20723">
<rect width="32" height="32" fill="white" transform="translate(16 16)"/>
</clipPath>
</defs>
</svg>
