<svg width="64" height="64" viewBox="0 0 64 64" fill="none" xmlns="http://www.w3.org/2000/svg">
<rect width="64" height="64" rx="32" fill="#F3F6FF"/>
<g clip-path="url(#clip0_4424_20744)">
<path d="M38.8164 23.6875C38.8149 23.6875 38.8134 23.6875 38.812 23.6875C38.4789 23.6875 38.1594 23.8205 37.9247 24.0571L30.7531 31.2846L28.0688 28.5602C27.8358 28.3238 27.5184 28.1897 27.1865 28.1875C27.1838 28.1875 27.1811 28.1875 27.1784 28.1875C26.8494 28.1875 26.5336 28.3173 26.2994 28.5487L21.4961 33.2987C21.0052 33.7841 21.0008 34.5756 21.4862 35.0664C21.7307 35.3137 22.0527 35.4376 22.3751 35.4375C22.6926 35.4375 23.0103 35.3172 23.2539 35.0763L27.1669 31.2068L29.8596 33.9398C30.094 34.1777 30.4138 34.3119 30.7478 34.3124C30.7486 34.3124 30.7493 34.3124 30.75 34.3124C31.0832 34.3124 31.4026 34.1794 31.6373 33.9429L38.8058 26.7184L40.7315 28.6867C41.2145 29.1802 42.0058 29.1887 42.4992 28.7059C42.9926 28.2231 43.0013 27.4317 42.5185 26.9382L39.7055 24.0632C39.4713 23.8241 39.1511 23.6887 38.8164 23.6875Z" fill="#6366F1"/>
<path d="M46.75 31.125C47.4404 31.125 48 30.5654 48 29.875V19.8125C48 19.1221 47.4404 18.5625 46.75 18.5625H33.25V17.25C33.25 16.5596 32.6904 16 32 16C31.3096 16 30.75 16.5596 30.75 17.25V18.5625H17.25C16.5596 18.5625 16 19.1221 16 19.8125V36.1875C16 38.9445 18.243 41.1875 21 41.1875H30.75V45.5H27C26.3096 45.5 25.75 46.0596 25.75 46.75C25.75 47.4404 26.3096 48 27 48H36.9375C37.6279 48 38.1875 47.4404 38.1875 46.75C38.1875 46.0596 37.6279 45.5 36.9375 45.5H33.25V41.1875H43C45.757 41.1875 48 38.9445 48 36.1875C48 35.4971 47.4404 34.9375 46.75 34.9375C46.0596 34.9375 45.5 35.4971 45.5 36.1875C45.5 37.566 44.3785 38.6875 43 38.6875H21C19.6215 38.6875 18.5 37.566 18.5 36.1875V21.0625H45.5V29.875C45.5 30.5654 46.0596 31.125 46.75 31.125Z" fill="#6366F1"/>
</g>
<defs>
<clipPath id="clip0_4424_20744">
<rect width="32" height="32" fill="white" transform="translate(16 16)"/>
</clipPath>
</defs>
</svg>
