<svg width="64" height="64" viewBox="0 0 64 64" fill="none" xmlns="http://www.w3.org/2000/svg">
<rect width="64" height="64" rx="32" fill="#F3F6FF"/>
<g clip-path="url(#clip0_4424_20694)">
<path d="M46.75 38C47.4404 38 48 37.4404 48 36.75V23.5C48 20.743 45.757 18.5 43 18.5H41.375V17.25C41.375 16.5596 40.8154 16 40.125 16C39.4346 16 38.875 16.5596 38.875 17.25V18.5H33.1875V17.25C33.1875 16.5596 32.6279 16 31.9375 16C31.2471 16 30.6875 16.5596 30.6875 17.25V18.5H25.0625V17.25C25.0625 16.5596 24.5029 16 23.8125 16C23.1221 16 22.5625 16.5596 22.5625 17.25V18.5H21C18.243 18.5 16 20.743 16 23.5V43C16 45.757 18.243 48 21 48H43C45.757 48 48 45.757 48 43C48 42.3096 47.4404 41.75 46.75 41.75C46.0596 41.75 45.5 42.3096 45.5 43C45.5 44.3785 44.3785 45.5 43 45.5H21C19.6215 45.5 18.5 44.3785 18.5 43V23.5C18.5 22.1215 19.6215 21 21 21H22.5625V22.25C22.5625 22.9404 23.1221 23.5 23.8125 23.5C24.5029 23.5 25.0625 22.9404 25.0625 22.25V21H30.6875V22.25C30.6875 22.9404 31.2471 23.5 31.9375 23.5C32.6279 23.5 33.1875 22.9404 33.1875 22.25V21H38.875V22.25C38.875 22.9404 39.4346 23.5 40.125 23.5C40.8154 23.5 41.375 22.9404 41.375 22.25V21H43C44.3785 21 45.5 22.1215 45.5 23.5V36.75C45.5 37.4404 46.0596 38 46.75 38Z" fill="#6366F1"/>
<path d="M37.5461 29.085L31.3847 37.6912C31.2165 37.8864 31.0056 37.9285 30.8926 37.936C30.7763 37.9441 30.5506 37.9288 30.3569 37.7445L26.3682 33.9145C25.87 33.4363 25.0788 33.4524 24.6008 33.9504C24.1227 34.4483 24.1387 35.2396 24.6366 35.7177L28.6294 39.5515C29.2274 40.1208 30.0256 40.4375 30.8468 40.4375C30.9174 40.4375 30.9881 40.4352 31.0589 40.4304C31.9535 40.3708 32.7888 39.9357 33.3505 39.2369C33.365 39.2187 33.379 39.2003 33.3926 39.1814L39.5789 30.5402C39.9807 29.9789 39.8514 29.198 39.2901 28.7962C38.7286 28.3944 37.9478 28.5236 37.5461 29.085Z" fill="#6366F1"/>
</g>
<defs>
<clipPath id="clip0_4424_20694">
<rect width="32" height="32" fill="white" transform="translate(16 16)"/>
</clipPath>
</defs>
</svg>
