<svg width="64" height="64" viewBox="0 0 64 64" fill="none" xmlns="http://www.w3.org/2000/svg">
<rect width="64" height="64" rx="32" fill="#F3F6FF"/>
<g clip-path="url(#clip0_4424_20705)">
<path d="M34.5295 37.0374C33.747 36.4915 32.9108 36.0466 32.0363 35.7068C33.1996 34.6494 33.9714 33.1682 34.1056 31.51C35.8698 29.791 38.1823 28.8486 40.6613 28.8486C42.5966 28.8486 44.4548 29.4314 46.0353 30.5337C46.6017 30.9287 47.3805 30.79 47.7756 30.2236C48.1703 29.6575 48.0317 28.8784 47.4655 28.4836C46.683 27.9377 45.8466 27.4932 44.9721 27.1531C46.2558 25.9863 47.0629 24.304 47.0629 22.4368C47.0629 18.9219 44.2035 16.0625 40.6886 16.0625C37.174 16.0625 34.3146 18.9219 34.3146 22.4368C34.3146 24.2964 35.1152 25.9727 36.3901 27.1389C36.2155 27.2061 36.0419 27.2771 35.87 27.3528C35.0878 27.697 34.3525 28.1204 33.6686 28.6174C32.7255 26.2744 30.4294 24.6162 27.7528 24.6162C24.2382 24.6162 21.3786 27.4756 21.3786 30.9902C21.3786 32.8447 22.1747 34.5164 23.4428 35.6821C20.0524 36.9524 17.3034 39.6807 16.1842 43.1602C15.8131 44.314 16.0097 45.5376 16.7235 46.5173C17.4374 47.4968 18.5419 48.0586 19.7538 48.0586H30.6276C31.3178 48.0586 31.8774 47.499 31.8774 46.8086C31.8774 46.1184 31.3178 45.5588 30.6276 45.5588H19.7538C19.3498 45.5588 18.9816 45.3716 18.7436 45.0449C18.5055 44.7183 18.4401 44.3103 18.5636 43.9255C19.799 40.0847 23.5666 37.4024 27.7255 37.4024C29.6606 37.4024 31.519 37.9851 33.0995 39.0874C33.6657 39.4824 34.4447 39.3435 34.8398 38.7774C35.2345 38.2112 35.0959 37.4321 34.5295 37.0374ZM40.6886 18.5623C42.8251 18.5623 44.5632 20.3003 44.5632 22.4368C44.5632 24.573 42.8251 26.3113 40.6886 26.3113C38.5524 26.3113 36.8141 24.573 36.8141 22.4368C36.8141 20.3003 38.5524 18.5623 40.6886 18.5623ZM27.7528 27.1157C29.8893 27.1157 31.6274 28.854 31.6274 30.9902C31.6274 33.1267 29.8893 34.8648 27.7528 34.8648C25.6164 34.8648 23.8783 33.1267 23.8783 30.9902C23.8783 28.854 25.6164 27.1157 27.7528 27.1157ZM48.0004 42.1218C48.0004 42.812 47.4408 43.3716 46.7504 43.3716H43.3134V46.8086C43.3134 47.499 42.7538 48.0586 42.0636 48.0586C41.3732 48.0586 40.8136 47.499 40.8136 46.8086V43.3716H37.3766C36.6864 43.3716 36.1269 42.812 36.1269 42.1218C36.1269 41.4314 36.6864 40.8718 37.3766 40.8718H40.8136V37.4348C40.8136 36.7446 41.3732 36.1851 42.0636 36.1851C42.7538 36.1851 43.3134 36.7446 43.3134 37.4348V40.8718H46.7504C47.4408 40.8718 48.0004 41.4314 48.0004 42.1218Z" fill="#6366F1"/>
</g>
<defs>
<clipPath id="clip0_4424_20705">
<rect width="32" height="32" fill="white" transform="translate(16 16)"/>
</clipPath>
</defs>
</svg>
