<svg width="61" height="61" viewBox="0 0 61 61" fill="none" xmlns="http://www.w3.org/2000/svg">
<path d="M12.816 38.5488C12.816 42.0757 9.93485 44.9568 6.40798 44.9568C2.88111 44.9568 0 42.0757 0 38.5488C0 35.022 2.88111 32.1409 6.40798 32.1409H12.816V38.5488Z" fill="#E01E5A"/>
<path d="M16.0444 38.5489C16.0444 35.022 18.9255 32.1409 22.4524 32.1409C25.9793 32.1409 28.8604 35.022 28.8604 38.5489V54.5936C28.8604 58.1205 25.9793 61.0016 22.4524 61.0016C18.9255 61.0016 16.0444 58.1205 16.0444 54.5936V38.5489Z" fill="#E01E5A"/>
<path d="M22.4524 12.8168C18.9255 12.8168 16.0444 9.93571 16.0444 6.40883C16.0444 2.88196 18.9255 0.000854492 22.4524 0.000854492C25.9793 0.000854492 28.8604 2.88196 28.8604 6.40883V12.8168H22.4524Z" fill="#36C5F0"/>
<path d="M22.4528 16.0477C25.9796 16.0477 28.8608 18.9288 28.8608 22.4556C28.8608 25.9825 25.9796 28.8636 22.4528 28.8636H6.40798C2.88111 28.8636 0 25.9825 0 22.4556C0 18.9288 2.88111 16.0477 6.40798 16.0477H22.4528Z" fill="#36C5F0"/>
<path d="M48.1836 22.4556C48.1836 18.9288 51.0647 16.0477 54.5916 16.0477C58.1185 16.0477 60.9996 18.9288 60.9996 22.4556C60.9996 25.9825 58.1185 28.8636 54.5916 28.8636H48.1836V22.4556Z" fill="#2EB67D"/>
<path d="M44.9551 22.4536C44.9551 25.9805 42.074 28.8616 38.5471 28.8616C35.0203 28.8616 32.1392 25.9805 32.1392 22.4536V6.40883C32.1392 2.88196 35.0203 0.000854492 38.5471 0.000854492C42.074 0.000854492 44.9551 2.88196 44.9551 6.40883V22.4536Z" fill="#2EB67D"/>
<path d="M38.5471 48.183C42.074 48.183 44.9551 51.0641 44.9551 54.591C44.9551 58.1178 42.074 60.9989 38.5471 60.9989C35.0203 60.9989 32.1392 58.1178 32.1392 54.591V48.183H38.5471Z" fill="#ECB22E"/>
<path d="M38.5471 44.9568C35.0203 44.9568 32.1392 42.0757 32.1392 38.5488C32.1392 35.022 35.0203 32.1409 38.5471 32.1409H54.5919C58.1188 32.1409 60.9999 35.022 60.9999 38.5488C60.9999 42.0757 58.1188 44.9568 54.5919 44.9568H38.5471Z" fill="#ECB22E"/>
</svg>
