<svg width="120" height="120" viewBox="0 0 120 120" fill="none" xmlns="http://www.w3.org/2000/svg">
<circle cx="60" cy="60" r="60" fill="#F3F6FF"/>
<path d="M59.9998 36.6667C47.1338 36.6667 36.6665 47.134 36.6665 60C36.6665 72.866 47.1338 83.3334 59.9998 83.3334C72.8658 83.3334 83.3332 72.866 83.3332 60C83.3332 47.134 72.8658 36.6667 59.9998 36.6667ZM59.9998 78.6667C49.7075 78.6667 41.3332 70.2924 41.3332 60C41.3332 49.7077 49.7075 41.3334 59.9998 41.3334C70.2922 41.3334 78.6665 49.7077 78.6665 60C78.6665 70.2924 70.2922 78.6667 59.9998 78.6667Z" fill="#6366F1"/>
<path d="M51.8335 60C53.7665 60 55.3335 58.433 55.3335 56.5C55.3335 54.567 53.7665 53 51.8335 53C49.9005 53 48.3335 54.567 48.3335 56.5C48.3335 58.433 49.9005 60 51.8335 60Z" fill="#6366F1"/>
<path d="M68.1502 59.9673C70.0742 59.9673 71.6338 58.4076 71.6338 56.4837C71.6338 54.5597 70.0742 53 68.1502 53C66.2262 53 64.6665 54.5597 64.6665 56.4837C64.6665 58.4076 66.2262 59.9673 68.1502 59.9673Z" fill="#6366F1"/>
<path d="M60.0002 74C69.3335 74 71.6668 64.6667 71.6668 64.6667H48.3335C48.3335 64.6667 50.6668 74 60.0002 74Z" fill="#6366F1"/>
</svg>
