<svg width="120" height="120" viewBox="0 0 120 120" fill="none" xmlns="http://www.w3.org/2000/svg">
<circle cx="60" cy="60" r="60" fill="#F3F6FF"/>
<path d="M60.0002 74C69.3335 74 71.6668 64.6667 71.6668 64.6667H48.3335C48.3335 64.6667 50.6668 74 60.0002 74Z" fill="currentColor"/>
<path d="M59.9998 36.6667C47.1338 36.6667 36.6665 47.134 36.6665 60C36.6665 72.866 47.1338 83.3334 59.9998 83.3334C72.8658 83.3334 83.3332 72.866 83.3332 60C83.3332 47.134 72.8658 36.6667 59.9998 36.6667ZM59.9998 78.6667C49.7075 78.6667 41.3332 70.2924 41.3332 60C41.3332 49.7077 49.7075 41.3334 59.9998 41.3334C70.2922 41.3334 78.6665 49.7077 78.6665 60C78.6665 70.2924 70.2922 78.6667 59.9998 78.6667Z" fill="currentColor"/>
<path d="M62.3332 60L66.9998 60.028C67.0278 58.95 67.4525 57.6667 69.3332 57.6667C71.2138 57.6667 71.6385 58.95 71.6665 60H76.3332C76.3332 57.186 74.4688 53 69.3332 53C64.1975 53 62.3332 57.186 62.3332 60ZM50.6665 57.6667C52.5472 57.6667 52.9718 58.95 52.9998 60H57.6665C57.6665 57.186 55.8022 53 50.6665 53C45.5308 53 43.6665 57.186 43.6665 60L48.3332 60.028C48.3612 58.95 48.7858 57.6667 50.6665 57.6667Z" fill="currentColor"/>
</svg>
