<svg width="120" height="120" viewBox="0 0 120 120" fill="none" xmlns="http://www.w3.org/2000/svg">
<circle cx="60" cy="60" r="60" fill="#F3F6FF"/>
<path d="M59.9998 36.6667C47.1338 36.6667 36.6665 47.134 36.6665 60C36.6665 72.866 47.1338 83.3334 59.9998 83.3334C72.8658 83.3334 83.3332 72.866 83.3332 60C83.3332 47.134 72.8658 36.6667 59.9998 36.6667ZM59.9998 78.6667C49.7075 78.6667 41.3332 70.2924 41.3332 60C41.3332 49.7077 49.7075 41.3334 59.9998 41.3334C70.2922 41.3334 78.6665 49.7077 78.6665 60C78.6665 70.2924 70.2922 78.6667 59.9998 78.6667Z" fill="#6366F1"/>
<path d="M66.5985 66.5987C66.1692 67.028 65.7048 67.4107 65.2195 67.7397C64.7178 68.078 64.1835 68.3673 63.6352 68.5983C63.0635 68.8387 62.4755 69.023 61.8852 69.142C60.6462 69.3917 59.3488 69.3917 58.1145 69.142C57.5218 69.0207 56.9338 68.8363 56.3668 68.6007C55.8162 68.365 55.2795 68.0757 54.7825 67.742C54.2925 67.4083 53.8282 67.0257 53.3965 66.594C52.9718 66.174 52.5892 65.7097 52.2578 65.2173L48.3892 67.8237C48.8908 68.568 49.4672 69.268 50.0995 69.898C50.7342 70.535 51.4318 71.1113 52.1715 71.6083C52.9182 72.1147 53.7185 72.5463 54.5538 72.901C55.4078 73.258 56.2898 73.5333 57.1835 73.7153C58.1075 73.9043 59.0572 74 59.9998 74C60.9425 74 61.8922 73.9043 62.8185 73.7153C63.7098 73.5357 64.5918 73.2603 65.4505 72.8987C66.2788 72.5487 67.0792 72.1147 67.8328 71.606C68.5655 71.109 69.2632 70.535 69.8978 69.9027C70.5325 69.2703 71.1112 68.5703 71.6105 67.8237L67.7418 65.2173C67.4082 65.7097 67.0255 66.174 66.5985 66.5987Z" fill="#6366F1"/>
<path d="M51.8335 60C53.7665 60 55.3335 58.433 55.3335 56.5C55.3335 54.567 53.7665 53 51.8335 53C49.9005 53 48.3335 54.567 48.3335 56.5C48.3335 58.433 49.9005 60 51.8335 60Z" fill="#6366F1"/>
<path d="M68.1668 55.3333C63.5002 55.3333 62.3335 60 62.3335 60H74.0002C74.0002 60 72.8312 55.3333 68.1668 55.3333Z" fill="#6366F1"/>
</svg>
