<svg width="61" height="61" viewBox="0 0 61 61" fill="none" xmlns="http://www.w3.org/2000/svg">
<path d="M30.5 61C47.3447 61 61 47.3447 61 30.5C61 13.6553 47.3447 0 30.5 0C13.6553 0 0 13.6553 0 30.5C0 47.3447 13.6553 61 30.5 61Z" fill="url(#paint0_linear_4424_20456)"/>
<path fill-rule="evenodd" clip-rule="evenodd" d="M12.2002 18.3054C12.2002 14.9334 14.9212 12.2 18.3056 12.2H42.6948C46.0667 12.2 48.8002 14.921 48.8002 18.3054V42.6945C48.8002 46.0665 46.0792 48.7999 42.6948 48.7999H18.3056C14.9337 48.7999 12.2002 46.0789 12.2002 42.6945V18.3054ZM32.8792 19.155V30.7734C32.8792 31.9869 33.8621 32.9705 35.0746 32.9705H41.8467C43.0589 32.9705 44.0422 31.9868 44.0422 30.7734V19.155C44.0422 17.9415 43.0592 16.958 41.8467 16.958H35.0746C33.8625 16.958 32.8792 17.9416 32.8792 19.155ZM16.9582 39.926V19.1524C16.9582 17.9405 17.9415 16.958 19.1536 16.958H25.9257C27.1382 16.958 28.1212 17.9405 28.1212 19.1524V39.926C28.1212 41.138 27.1379 42.1205 25.9257 42.1205H19.1536C17.9411 42.1205 16.9582 41.1379 16.9582 39.926Z" fill="white"/>
<defs>
<linearGradient id="paint0_linear_4424_20456" x1="0" y1="0" x2="0" y2="61" gradientUnits="userSpaceOnUse">
<stop stop-color="#0091E6"/>
<stop offset="1" stop-color="#0079BF"/>
</linearGradient>
</defs>
</svg>
