<svg width="61" height="61" viewBox="0 0 61 61" fill="none" xmlns="http://www.w3.org/2000/svg">
<path d="M30.5 61C47.3447 61 61 47.3447 61 30.5C61 13.6553 47.3447 0 30.5 0C13.6553 0 0 13.6553 0 30.5C0 47.3447 13.6553 61 30.5 61Z" fill="#2D8CFF"/>
<path fill-rule="evenodd" clip-rule="evenodd" d="M48.4024 20.2512L39.7828 26.5402V34.4841L48.4024 40.7731C49.0123 41.239 49.7285 41.383 49.7285 40.1111V20.9132C49.7285 19.7791 49.1538 19.6366 48.4024 20.2512ZM10.6089 35.2742V20.9526C10.6089 20.3668 11.0881 19.8914 11.6792 19.8914H32.5658C35.818 19.8914 38.4567 22.5036 38.4567 25.7259V40.0475C38.4567 40.6333 37.9775 41.1087 37.3864 41.1087H16.4998C13.2476 41.1087 10.6089 38.4965 10.6089 35.2742Z" fill="white"/>
</svg>
